<svg width="24" height="25" viewBox="0 0 24 25" fill="none" xmlns="http://www.w3.org/2000/svg">
<path d="M12 0.115234C5.39999 0.115234 0 5.52487 0 12.1875C0 18.2116 4.39199 23.2116 10.128 24.1152V15.6815H7.07999V12.1875H10.128V9.52487C10.128 6.50078 11.916 4.83813 14.664 4.83813C15.972 4.83813 17.34 5.06704 17.34 5.06704V8.04295H15.828C14.34 8.04295 13.872 8.97066 13.872 9.92247V12.1875H17.208L16.668 15.6815H13.872V24.1152C16.6997 23.6669 19.2746 22.2183 21.1319 20.031C22.9892 17.8437 24.0064 15.0618 24 12.1875C24 5.52487 18.6 0.115234 12 0.115234Z" fill="#73787C" fill-opacity="0.5"/>
</svg>
